<?xml version="1.0" encoding="UTF-8"?>
<svg width="702px" height="712px" viewBox="0 0 702 712" version="1.1" xmlns="http://www.w3.org/2000/svg" xmlns:xlink="http://www.w3.org/1999/xlink">
    <!-- Generator: Sketch 46.2 (44496) - http://www.bohemiancoding.com/sketch -->
    <title>back-icon</title>
    <desc>Created with Sketch.</desc>
    <defs></defs>
    <g id="Page-1" stroke="none" stroke-width="1" fill="none" fill-rule="evenodd">
        <g id="back-icon" fill="#FFFFFF">
            <path d="M351,712 C157.148053,712 0,552.613371 0,356 C0,159.386629 157.148053,0 351,0 C544.851947,0 702,159.386629 702,356 C702,552.613371 544.851947,712 351,712 Z M420.275417,210.000582 L403.608266,193.33343 C401.385968,191.111132 398.830363,190 395.941376,190 C393.052389,190 390.496784,191.111132 388.274486,193.33343 L232.936637,348.67128 C230.714339,350.893578 229.603206,353.449182 229.603206,356.33817 C229.603206,359.227157 230.714339,361.782761 232.936637,364.005059 L388.274486,519.342909 C390.496784,521.565207 393.052389,522.676339 395.941376,522.676339 C398.830363,522.676339 401.385968,521.565207 403.608266,519.342909 L420.275417,502.675758 C422.497715,500.45346 423.608847,497.897856 423.608847,495.008868 C423.608847,492.119881 422.497715,489.564277 420.275417,487.341979 L289.271608,356.33817 L420.275417,225.334361 C422.497715,223.112063 423.608847,220.556458 423.608847,217.667471 C423.608847,214.778484 422.497715,212.222879 420.275417,210.000582 Z"></path>
        </g>
    </g>
</svg>