<?xml version="1.0" encoding="UTF-8"?>
<svg width="539px" height="539px" viewBox="0 0 539 539" version="1.1" xmlns="http://www.w3.org/2000/svg" xmlns:xlink="http://www.w3.org/1999/xlink">
    <!-- Generator: Sketch 46.2 (44496) - http://www.bohemiancoding.com/sketch -->
    <title>Combined Shape</title>
    <desc>Created with Sketch.</desc>
    <defs></defs>
    <g id="Page-1" stroke="none" stroke-width="1" fill="none" fill-rule="evenodd">
        <path d="M269.527117,183.940079 L103.691402,18.1043644 C80.0646827,-5.52235526 41.7582014,-5.52235526 18.1314818,18.1043644 C-5.49523786,41.731084 -5.49523786,80.0375653 18.1314818,103.664285 L183.967197,269.5 L18.1314818,435.335715 C-5.49523786,458.962435 -5.49523786,497.268916 18.1314818,520.895636 C41.7582014,544.522355 80.0646827,544.522355 103.691402,520.895636 L269.527117,355.059921 L435.362832,520.895636 C458.989552,544.522355 497.296033,544.522355 520.922753,520.895636 C544.549473,497.268916 544.549473,458.962435 520.922753,435.335715 L355.087038,269.5 L520.922753,103.664285 C544.549473,80.0375653 544.549473,41.731084 520.922753,18.1043644 C497.296033,-5.52235526 458.989552,-5.52235526 435.362832,18.1043644 L269.527117,183.940079 Z" id="Combined-Shape" fill="#FFFFFF" fill-rule="nonzero"></path>
    </g>
</svg>