<?xml version="1.0" standalone="no"?>
<!DOCTYPE svg PUBLIC "-//W3C//DTD SVG 20010904//EN"
 "http://www.w3.org/TR/2001/REC-SVG-20010904/DTD/svg10.dtd">
<svg version="1.0" xmlns="http://www.w3.org/2000/svg"
 width="557.000000pt" height="557.000000pt" viewBox="0 0 557.000000 557.000000"
 preserveAspectRatio="xMidYMid meet">
<metadata>
Created by potrace 1.11, written by Peter Selinger 2001-2013
</metadata>
<g transform="translate(0.000000,557.000000) scale(0.100000,-0.100000)"
fill="#000000" stroke="none">
<path d="M3279 5553 c-2 -10 -4 -422 -3 -917 0 -881 0 -898 -19 -875 -154 195
-431 338 -727 375 -19 2 -57 8 -85 12 -58 9 -307 8 -377 -2 -27 -3 -69 -9 -95
-12 -27 -3 -95 -17 -153 -30 -397 -93 -758 -307 -1035 -615 -280 -310 -474
-755 -512 -1173 -15 -155 -8 -475 12 -576 2 -14 7 -41 9 -60 14 -107 72 -307
124 -430 137 -327 354 -619 602 -810 24 -19 53 -43 65 -53 34 -31 205 -133
310 -185 179 -89 441 -167 638 -189 83 -9 345 -10 432 -1 88 10 272 56 390 99
107 39 321 146 425 213 116 75 339 248 362 281 5 6 11 6 17 0 9 -9 271 -368
311 -426 8 -12 29 -40 46 -63 l31 -41 122 -1 121 -2 0 741 0 741 -368 -366
c-202 -202 -388 -386 -415 -411 -126 -117 -314 -169 -488 -133 -128 27 -196
72 -376 250 l-163 159 -57 -17 c-94 -28 -161 -35 -283 -31 -179 5 -345 60
-498 164 -181 123 -330 325 -406 551 -64 193 -72 418 -21 664 28 136 137 344
239 454 135 146 350 257 560 290 57 9 272 8 323 -1 108 -20 252 -82 365 -158
81 -55 222 -196 278 -278 124 -184 194 -392 199 -598 1 -43 3 -78 4 -80 1 -1
251 244 555 545 l553 547 -1 1233 0 1232 -504 0 c-472 0 -504 -1 -507 -17z"/>
<path d="M4868 3325 c-94 -32 -112 -50 -1359 -1291 -201 -200 -368 -364 -371
-364 -3 0 -147 141 -319 313 -363 362 -362 361 -504 362 -76 0 -98 -4 -145
-26 -70 -33 -132 -95 -167 -167 -24 -49 -28 -69 -28 -142 0 -148 0 -148 413
-562 489 -492 527 -529 575 -558 96 -59 212 -63 318 -12 69 33 56 20 1451
1408 573 570 566 561 572 693 8 157 -91 301 -239 345 -55 17 -150 17 -197 1z"/>
</g>
</svg>
